<svg xmlns="http://www.w3.org/2000/svg" width="100" height="100" viewBox="0 0 192 192" style="fill:#000"><g fill="none" stroke-miterlimit="10" font-family="none" font-weight="none" font-size="none" text-anchor="none" style="mix-blend-mode:normal"><path d="M0 192V0h192v192z"/><circle cx="77" cy="13" transform="scale(1.92)" r="1" fill="#ffc894"/><circle cx="50" cy="50" transform="scale(1.92)" r="37" fill="#e6eead"/><circle cx="83" cy="15" transform="scale(1.92)" r="4" fill="#ffc894"/><circle cx="87" cy="24" transform="scale(1.92)" r="2" fill="#ff6900"/><circle cx="81" cy="76" transform="scale(1.92)" r="2" fill="#f5851f"/><circle cx="15" cy="63" transform="scale(1.92)" r="4" fill="#f5851f"/><circle cx="25" cy="87" transform="scale(1.92)" r="2" fill="#b1dfb2"/><circle cx="18.5" cy="51.5" transform="scale(1.92)" r="2.5" fill="#fff"/><circle cx="79.5" cy="33.5" transform="scale(1.92)" r="1.5" fill="#fff"/><path d="M59.52 133.056c-4.552 0-8.256-3.704-8.256-8.256V65.28c0-4.552 3.704-8.256 8.256-8.256h72.96c4.552 0 8.256 3.704 8.256 8.256v59.52c0 4.552-3.704 8.256-8.256 8.256z" fill="#fff"/><path d="M132.48 58.368a6.92 6.92 0 0 1 6.912 6.912v59.52a6.92 6.92 0 0 1-6.912 6.912H59.52a6.92 6.92 0 0 1-6.912-6.912V65.28a6.92 6.92 0 0 1 6.912-6.912h72.96m0-2.688H59.52c-5.301 0-9.6 4.299-9.6 9.6v59.52c0 5.301 4.299 9.6 9.6 9.6h72.96c5.301 0 9.6-4.299 9.6-9.6V65.28c0-5.301-4.299-9.6-9.6-9.6z" fill="#362825"/><path d="M110.4 82.56H77.76a.96.96 0 0 1 0-1.92h32.64a.96.96 0 0 1 0 1.92zM85.44 64.8H52.8a.48.48 0 0 1 0-.96h32.64a.48.48 0 0 1 0 .96zM96.96 64.8h-7.68a.48.48 0 0 1 0-.96h7.68a.48.48 0 0 1 0 .96zM120 64.8h-19.2a.48.48 0 0 1 0-.96H120a.48.48 0 0 1 0 .96zM139.2 64.8h-13.44a.48.48 0 0 1 0-.96h13.44a.48.48 0 0 1 0 .96zM85.44 126.24H52.8a.48.48 0 0 1 0-.96h32.64a.48.48 0 0 1 0 .96zM96.96 126.24h-7.68a.48.48 0 0 1 0-.96h7.68a.48.48 0 0 1 0 .96z" fill="#362825"/><g fill="#362825"><path d="M120 126.24h-19.2a.48.48 0 0 1 0-.96H120a.48.48 0 0 1 0 .96z"/></g><g fill="#362825"><path d="M139.2 126.24h-13.44a.48.48 0 0 1 0-.96h13.44a.48.48 0 0 1 0 .96z"/></g><g fill="#362825"><path d="M129.6 82.56h-11.52a.96.96 0 0 1 0-1.92h11.52a.96.96 0 0 1 0 1.92z"/></g><g fill="#362825"><path d="M129.6 99.84H93.12a.96.96 0 0 1 0-1.92h36.48a.96.96 0 0 1 0 1.92z"/></g><g fill="#362825"><path d="M87.36 99.84h-9.6a.96.96 0 0 1 0-1.92h9.6a.96.96 0 0 1 0 1.92z"/></g><g fill="#362825"><path d="M116.16 115.2h-38.4a.96.96 0 0 1 0-1.92h38.4a.96.96 0 0 1 0 1.92z"/></g><g fill="#362825"><path d="M66.048 84.864a.97.97 0 0 1-.68-.28l-4.608-4.608a.96.96 0 0 1 1.358-1.358l3.826 3.827 6.246-8.331a.964.964 0 0 1 1.344-.194c.424.319.51.92.194 1.344l-6.912 9.216a.969.969 0 0 1-.7.382c-.022.002-.045.002-.068.002z"/></g><g fill="#362825"><path d="M66.048 102.144a.97.97 0 0 1-.68-.28l-4.608-4.608a.96.96 0 0 1 1.358-1.358l3.826 3.827 6.246-8.331a.964.964 0 0 1 1.344-.194c.424.319.51.92.194 1.344l-6.912 9.216a.969.969 0 0 1-.7.382c-.022.002-.045.002-.068.002z"/></g><g fill="#362825"><path d="M66.048 117.504a.97.97 0 0 1-.68-.28l-4.608-4.608a.96.96 0 0 1 1.358-1.358l3.826 3.827 6.246-8.331a.964.964 0 0 1 1.344-.194c.424.319.51.92.194 1.344l-6.912 9.216a.969.969 0 0 1-.7.382c-.022.002-.045.002-.068.002z"/></g></g></svg>