<svg xmlns="http://www.w3.org/2000/svg" width="100" height="100" viewBox="0 0 192 192" style="fill:#000"><g fill="none" stroke-miterlimit="10" font-family="none" font-weight="none" font-size="none" text-anchor="none" style="mix-blend-mode:normal"><path d="M0 192V0h192v192z"/><circle cx="77" cy="13" transform="scale(1.92)" r="1" fill="#f5851f"/><circle cx="50" cy="50" transform="scale(1.92)" r="37" fill="#e6eead"/><circle cx="83" cy="15" transform="scale(1.92)" r="4" fill="#f5851f"/><circle cx="87" cy="24" transform="scale(1.92)" r="2" fill="#88ae45"/><circle cx="81" cy="76" transform="scale(1.92)" r="2" fill="#fbcd59"/><circle cx="15" cy="63" transform="scale(1.92)" r="4" fill="#fbcd59"/><circle cx="25" cy="87" transform="scale(1.92)" r="2" fill="#88ae45"/><circle cx="18.5" cy="51.5" transform="scale(1.92)" r="2.5" fill="#fff"/><circle cx="79.5" cy="33.5" transform="scale(1.92)" r="1.5" fill="#fff"/><path d="M53.639 86.976a2.378 2.378 0 0 1-2.375-2.375v-9.84a2.377 2.377 0 0 1 2.375-2.375h4.537v14.592h-4.537z" fill="#bebacb"/><path d="M56.832 73.728v11.904h-3.193a1.033 1.033 0 0 1-1.031-1.033v-9.84c0-.568.463-1.033 1.031-1.033h3.193m2.688-2.686h-5.881a3.72 3.72 0 0 0-3.719 3.721v9.84a3.72 3.72 0 0 0 3.719 3.719h5.881V71.04z" fill="#472b29"/><path d="M131.904 86.976V72.384h4.535a2.377 2.377 0 0 1 2.375 2.375v9.84a2.377 2.377 0 0 1-2.375 2.375h-4.535z" fill="#bebacb"/><path d="M136.439 73.728c.568 0 1.033.463 1.033 1.033v9.84c0 .568-.463 1.033-1.033 1.033h-3.191V73.73h3.191m0-2.69h-5.879v17.28h5.879a3.72 3.72 0 0 0 3.721-3.719v-9.84a3.72 3.72 0 0 0-3.721-3.721z" fill="#472b29"/><path d="M66.4 138.816c-.936 0-1.696-.76-1.696-1.695v-10.977h10.752v10.977c0 .935-.76 1.695-1.695 1.695z" fill="#bebacb"/><path d="M74.112 127.488v9.633a.353.353 0 0 1-.351.353H66.4a.353.353 0 0 1-.351-.353v-9.633h8.062M76.8 124.8H63.36v12.32a3.04 3.04 0 0 0 3.04 3.04h7.359a3.04 3.04 0 0 0 3.041-3.04V124.8z" fill="#472b29"/><path d="M116.32 138.816c-.936 0-1.696-.76-1.696-1.695v-10.977h10.752v10.977c0 .935-.76 1.695-1.695 1.695z" fill="#bebacb"/><path d="M124.032 127.488v9.633a.353.353 0 0 1-.351.353h-7.36a.353.353 0 0 1-.351-.353v-9.633h8.062m2.688-2.688h-13.44v12.32a3.04 3.04 0 0 0 3.04 3.04h7.359a3.04 3.04 0 0 0 3.041-3.04V124.8z" fill="#472b29"/><path d="M62.492 127.296c-3.014 0-5.468-2.517-5.468-5.61l2.018-64.777c0-6.307 4.982-11.403 11.103-11.403h49.79c6.12 0 11.101 5.096 11.101 11.362l2.022 64.86c-.002 3.053-2.454 5.568-5.47 5.568z" fill="#f5851f"/><path d="M119.935 46.848c5.381 0 9.76 4.495 9.761 10.101l2.016 64.737c0 2.352-1.85 4.266-4.124 4.266H62.492c-2.273 0-4.124-1.914-4.126-4.184l2.02-64.903c0-5.524 4.378-10.019 9.76-10.019h49.789m0-2.686h-49.79c-6.873 0-12.447 5.689-12.447 12.707l-2.018 64.819c0 3.84 3.05 6.954 6.812 6.954h65.096c3.761 0 6.812-3.114 6.812-6.954l-2.018-64.82c0-7.017-5.574-12.706-12.447-12.706z" fill="#472b29"/><path d="m131.06 96.32-8.88 3.52H68.1l-8.987-3.66 1.175-36.66 69.492-.08z" fill="#f7f7f7"/><path d="m122.494 101.76-54.443-.065-9.84-3.84.698-1.79 9.671 3.775h53.532l9.04-3.767.737 1.774zM59.52 57.554h71.04v1.92H59.52z" fill="#472b29"/><path d="M85.44 62.4a3.844 3.844 0 0 1-3.84-3.84 3.844 3.844 0 0 1 3.84-3.84h19.2a3.844 3.844 0 0 1 3.84 3.84 3.844 3.844 0 0 1-3.84 3.84z" fill="#ea5167"/><path d="M104.64 55.68a2.884 2.884 0 0 1 2.88 2.88 2.884 2.884 0 0 1-2.88 2.88h-19.2a2.884 2.884 0 0 1-2.88-2.88 2.884 2.884 0 0 1 2.88-2.88h19.2m0-1.92h-19.2a4.8 4.8 0 1 0 0 9.6h19.2a4.8 4.8 0 1 0 0-9.6z" fill="#472b29"/><path d="M66.3 120a1.982 1.982 0 0 1-1.98-1.98v-3.72c0-1.091.887-1.98 1.98-1.98l9.35 1.9c2.394.548 3.105 2.1 2.96 3.363-.13 1.165-1.052 2.417-2.77 2.417z" fill="#ff6900"/><path d="m66.157 113.29 9.255 1.862c1.53.35 2.371 1.217 2.246 2.323-.088.78-.683 1.565-1.818 1.565H66.3a1.02 1.02 0 0 1-1.02-1.02v-3.72c0-.513.382-.94.877-1.01m.143-1.93a2.94 2.94 0 0 0-2.94 2.94v3.72a2.94 2.94 0 0 0 2.94 2.94h9.54c4.36 0 5.6-6.4 0-7.68l-9.54-1.92z" fill="#472b29"/><g><path d="M114.24 120c-1.718 0-2.64-1.252-2.77-2.417-.145-1.266.566-2.815 2.985-3.368l9.516-1.914c.902.019 1.79.908 1.79 1.999v3.72c0 1.091-.888 1.98-1.979 1.98z" fill="#ff6900"/><path d="M123.923 113.29c.495.07.877.497.877 1.01v3.72a1.02 1.02 0 0 1-1.02 1.02h-9.54c-1.135 0-1.73-.785-1.818-1.565-.125-1.106.714-1.974 2.196-2.313l9.305-1.872m-.143-1.93-9.54 1.92c-5.6 1.28-4.36 7.68 0 7.68h9.54a2.94 2.94 0 0 0 2.94-2.94v-3.72a2.94 2.94 0 0 0-2.94-2.94z" fill="#472b29"/></g><g fill="#472b29"><path d="M121.92 101.76H120a6.727 6.727 0 0 0-6.72-6.72 6.727 6.727 0 0 0-6.72 6.72h-1.92c0-4.764 3.876-8.64 8.64-8.64 4.764 0 8.64 3.876 8.64 8.64z"/></g><g fill="#472b29"><path d="M95.04 101.76a.96.96 0 0 1-.96-.96V79.68a.96.96 0 0 1 1.92 0v21.12c0 .53-.43.96-.96.96z"/></g><g fill="#472b29"><path d="M95.04 76.8a.96.96 0 0 1-.96-.96v-5.76a.96.96 0 0 1 1.92 0v5.76c0 .53-.43.96-.96.96z"/></g><g fill="#472b29"><path d="M81.6 140.16H58.56a.96.96 0 0 1 0-1.92H81.6a.96.96 0 0 1 0 1.92z"/></g><g fill="#472b29"><path d="M93.12 140.16h-5.76a.96.96 0 0 1 0-1.92h5.76a.96.96 0 0 1 0 1.92z"/></g><g fill="#472b29"><path d="M131.52 140.16H98.88a.96.96 0 0 1 0-1.92h32.64a.96.96 0 0 1 0 1.92z"/></g><g fill="#472b29"><path d="M83.52 120.96a.96.96 0 0 1-.96-.96v-9.6a.96.96 0 0 1 1.92 0v9.6c0 .53-.43.96-.96.96z"/></g><g fill="#472b29"><path d="M87.36 120.96a.96.96 0 0 1-.96-.96v-9.6a.96.96 0 0 1 1.92 0v9.6c0 .53-.43.96-.96.96z"/></g><g fill="#472b29"><path d="M91.2 120.96a.96.96 0 0 1-.96-.96v-9.6a.96.96 0 0 1 1.92 0v9.6c0 .53-.43.96-.96.96z"/></g><g fill="#472b29"><path d="M95.04 120.96a.96.96 0 0 1-.96-.96v-9.6a.96.96 0 0 1 1.92 0v9.6c0 .53-.43.96-.96.96z"/></g><g fill="#472b29"><path d="M98.88 120.96a.96.96 0 0 1-.96-.96v-9.6a.96.96 0 0 1 1.92 0v9.6c0 .53-.43.96-.96.96z"/></g><g fill="#472b29"><path d="M102.72 120.96a.96.96 0 0 1-.96-.96v-9.6a.96.96 0 0 1 1.92 0v9.6c0 .53-.43.96-.96.96z"/></g><g fill="#472b29"><path d="M106.56 120.96a.96.96 0 0 1-.96-.96v-9.6a.96.96 0 0 1 1.92 0v9.6c0 .53-.43.96-.96.96z"/></g><g fill="#472b29"><path d="M95.04 67.2a.96.96 0 0 1-.96-.96V62.4a.96.96 0 0 1 1.92 0v3.84c0 .53-.43.96-.96.96z"/></g><path d="M96 192c-53.02 0-96-42.98-96-96S42.98 0 96 0s96 42.98 96 96-42.98 96-96 96z"/><path d="M96 188.16c-50.899 0-92.16-41.261-92.16-92.16C3.84 45.101 45.101 3.84 96 3.84c50.899 0 92.16 41.261 92.16 92.16 0 50.899-41.261 92.16-92.16 92.16z"/></g></svg>