<svg xmlns="http://www.w3.org/2000/svg" width="100" height="100" viewBox="0 0 192 192" style="fill:#000"><g fill="none" stroke-miterlimit="10" font-family="none" font-weight="none" font-size="none" text-anchor="none" style="mix-blend-mode:normal"><path d="M0 192V0h192v192z"/><circle cx="49.1" cy="49.6" transform="scale(1.92)" r="37.3" fill="#e6eead"/><path d="M118.848 162.432c-.384-8.448-.96-22.272-.96-22.272-.768-4.032-2.496-6.528-6.336-7.68-.192 0-.384-.192-.576-.192l-1.152-.384c-2.304-.96-16.512-6.336-16.512-6.336-1.152-.192-1.92-.96-2.304-2.112-.384-1.728-.576-3.648-.384-5.568-3.072 1.152-6.336 1.92-9.6 2.688-3.648.384-11.52-4.416-11.52-4.416s-.192 5.76-.384 7.104c-.384 1.152-1.344 1.92-2.496 2.112l-13.632 4.992c-1.536.384-2.88.96-4.224 1.728-2.88 1.92-4.992 4.608-5.952 7.872 0 0-.384 2.112-.576 4.032 19.392 21.12 49.728 28.224 76.608 18.432z" fill="#ce9065"/><path d="M41.856 143.808c1.92 1.92 3.456 4.224 5.76 5.952 2.496 1.92 5.184 3.648 7.872 5.184 4.8 3.072 9.984 5.76 15.552 7.68 12.096 4.032 24.96 4.992 37.632 2.88h.576c3.456-1.152 6.72-2.496 9.984-4.032-.384-8.064-.96-21.504-.96-21.504-.768-4.224-2.496-6.528-6.336-7.68l-.576-.192-1.152-.384c-1.344-.576-14.016-4.992-18.24-6.528-5.568 3.84-8.064 5.376-11.904 5.376s-7.68-1.728-11.904-5.76l-6.144 2.304-.576.192-8.448 3.072c-1.536.384-2.88.96-4.224 1.728-2.88 1.92-5.184 4.608-6.144 8.064-.192 0-.576 1.92-.768 3.648z" fill="#669969"/><path d="M70.848 138.048c.768 1.92-.384 4.8-.384 6.912 0 3.84.96 7.488 2.496 10.944v.384a65.076 65.076 0 0 1 3.456 7.488l.192.576c1.92.576 4.032.96 5.952 1.344 1.152-2.688 2.496-5.184 3.456-7.872 1.536-4.416 3.84-8.64 6.72-12.48-1.344-1.728-2.304-3.84-3.648-5.568a.928.928 0 0 1 0-1.344c.768-.768 1.728-1.536 2.88-1.92 1.152-.576 2.304-.96 3.456-1.536-.768-3.072-2.112-6.144-4.032-8.832-.192-.192-.192-.768 0-.96-5.376 3.84-7.872 5.376-11.52 5.376-4.224 0-8.064-2.112-10.752-5.376-.384 2.88-3.072 6.912-1.152 9.792.768 1.152 2.496 1.536 2.88 3.072z" fill="#fdfcef"/><path d="m82.56 165.504.96-22.272c-.576-1.92-2.688-2.88-4.416-2.112a3.803 3.803 0 0 0-2.112 2.112l-.192 21.12c1.728.384 3.648.768 5.76 1.152z" fill="#472b29"/><path d="m76.992 139.584-3.072-7.872h12.288l-3.072 7.872c-.576 1.728-2.496 2.496-4.224 1.92-.96-.384-1.536-1.152-1.92-1.92z" fill="#472b29"/><path d="m68.928 124.416-2.688 2.112 6.912 15.168 7.296-10.944s-10.944-3.456-11.52-6.336z" fill="#e1e0d8"/><path d="m90.816 124.416 3.072 1.92-7.296 15.552-7.296-10.944c-.192 0 10.944-3.648 11.52-6.528z" fill="#e1e0d8"/><path d="m64.32 144.576 10.944 19.2 2.304.576c-2.304-9.024-6.144-26.496-8.064-41.088 0 0-4.608 1.92-7.872 12.48l7.872 2.88zM84.096 165.696 96 144.576l-4.992-5.76 7.872-2.88c-3.264-10.56-7.872-12.48-7.872-12.48-1.92 15.168-6.144 33.216-8.256 42.048z" fill="#472b29"/><circle cx="19.8" cy="56.2" transform="scale(1.92)" r=".9" fill="#fff"/><circle cx="78.6" cy="31.5" transform="scale(1.92)" r=".7" fill="#fff"/><circle cx="76" cy="12.5" transform="scale(1.92)" r=".9" fill="#f5851f"/><circle cx="20.3" cy="63.8" transform="scale(1.92)" r=".9" fill="#f5851f"/><circle cx="81.4" cy="14.7" transform="scale(1.92)" r="4" fill="#f5851f"/><circle cx="85.4" cy="23.7" transform="scale(1.92)" r="1.9" fill="#669969"/><circle cx="76.4" cy="75.8" transform="scale(1.92)" r="1.9" fill="#f5851f"/><circle cx="13.6" cy="63" transform="scale(1.92)" r="4" fill="#f5851f"/><circle cx="23.8" cy="87" transform="scale(1.92)" r="1.9" fill="#669969"/><circle cx="75.1" cy="30" transform="scale(1.92)" r="1.8" fill="#fff"/><circle cx="17.3" cy="50.9" transform="scale(1.92)" r="2.5" fill="#fff"/><path d="M104.832 166.656c-.384 0-.576-.192-.576-.576v-7.872c0-.384.192-.576.576-.576.384 0 .576.192.576.576v7.872c0 .192-.384.576-.576.576z" fill="#133b63"/><path d="M103.296 89.664h-.768c-1.92 0-2.304.576-2.304-.576.192-2.112-.192-10.176-.192-10.56 0-8.448-8.832-15.36-19.968-15.936h-.384c-11.136.384-19.968 7.296-19.968 15.936 0 .384-.192 8.64-.192 10.56 0 1.152-.384.384-2.304.576h-.768c-1.92 0-3.456 1.152-4.032 3.072.192.192 1.152 7.104 2.688 9.984.768 1.536 2.112 1.728 3.456 2.688.576.384.96 1.152 1.152 1.92.96 3.072 2.688 5.76 5.184 7.872 1.152 1.152 9.792 8.256 14.976 8.64 6.528-.192 13.824-7.488 14.976-8.64 2.304-2.112 4.224-4.8 5.184-7.872.192-.768.576-1.536 1.152-1.92 1.344-.96 2.688-1.152 3.456-2.688 1.536-2.688 2.496-9.792 2.688-9.984-.576-1.728-2.304-3.072-4.032-3.072z" fill="#db9e71"/><path d="M79.68 102.528c1.344 0 2.496-.576 3.456-1.536v-.384h-.384c-1.728 1.536-4.416 1.536-6.144 0h-.384v.384c.96.96 2.112 1.536 3.456 1.536zM75.84 85.248l.768-1.536c-3.648-.768-7.296-.768-10.944.384l.96 1.536c3.072-.96 6.336-.96 9.216-.384zM93.312 85.248l.768-1.536c-3.648-.768-7.296-.768-10.944.384l.96 1.536c3.264-.96 6.336-.96 9.216-.384zM70.848 87.552c-.768 0-1.536.576-1.92 1.344h.384c.768 0 1.344.768 1.152 1.536 0 .576-.576 1.152-1.152 1.152-.192 0-.384 0-.576-.192.192 1.152 1.152 2.112 2.304 2.112 1.728-.384 2.688-2.112 2.304-3.84-.384-.96-1.344-1.728-2.496-2.112zM89.088 87.552c-.768 0-1.344.384-1.728.96h.384c.768 0 1.344.576 1.344 1.344 0 .768-.576 1.344-1.152 1.344-.384 0-.768-.192-.96-.576-.192 1.536.96 2.88 2.304 3.072 1.728-.384 2.688-2.112 2.304-3.84-.384-.96-1.344-1.92-2.496-2.304z" fill="#512c2b"/><path d="m103.296 98.88-1.152-.192.384-3.456-1.92.768-.384-1.152 2.88-1.152h.576c.192.192.192.384.192.576zM57.024 98.112l-.576-4.416c0-.192 0-.384.192-.576.192-.192.384-.192.576 0l2.88 1.152-.384 1.152-1.92-.768.384 3.456z" fill="#895d3d"/><path d="M59.712 106.56a.413.413 0 0 1-.384-.384l.384-16.512c0-.192.192-.384.384-.384s.384.192.384.384l-.384 16.512a.413.413 0 0 1-.384.384zM100.416 106.56a.413.413 0 0 1-.384-.384l-.192-16.512c0-.192.192-.384.384-.384s.384.192.384.384l.384 16.512c-.192.192-.384.384-.576.384zM80.064 124.032c-4.032 0-10.944-4.608-11.136-4.8-.192-.192-.192-.384-.192-.576.192-.192.384-.192.576-.192 0 0 7.488 4.992 11.136 4.608 3.648-.384 9.408-4.416 9.408-4.416.192-.192.576 0 .576.192.192.192.192.576-.192.576-.192.192-5.952 4.032-9.984 4.608h-.192z" fill="#472b29"/><path d="M94.08 167.616c-19.776 0-38.976-8.064-52.992-23.232-.192-.192-.192-.384-.192-.768.192-.96.384-2.112.768-3.456.768-3.648 3.072-6.72 6.528-8.448 1.344-.768 2.88-1.344 4.416-1.728l13.632-4.992c.96-.192 1.728-.768 1.92-1.728 0-.576.192-2.304.192-3.84-1.344-.96-2.688-1.92-4.032-3.072-2.496-2.304-4.416-4.992-5.376-8.256-.192-.768-.384-1.152-.768-1.536-.384-.384-.768-.576-1.152-.768-.96-.576-1.728-.96-2.496-2.304-1.536-3.264-2.496-6.72-2.688-10.368v-.384c.576-2.112 2.496-3.456 4.8-3.648H58.944c-.192-1.728 0-7.296.192-9.6v-.96c0-9.024 9.024-16.32 20.736-16.704h.384c11.712.384 20.736 7.68 20.736 16.704v.96c0 2.304.192 7.68.192 9.6.384 0 .768-.192 1.536-.192h.768c2.304 0 4.032 1.536 4.8 3.648v.192c-.384 3.648-1.152 7.104-2.688 10.176-.768 1.344-1.536 1.728-2.496 2.304-.384.192-.768.384-1.152.768-.384.384-.768.768-.768 1.344-1.344 4.032-3.264 6.72-5.76 9.024-1.344 1.152-2.88 2.304-4.416 3.456 0 1.344.192 2.496.576 3.648.384.768.96 1.344 1.92 1.536.576.192 14.208 5.376 16.704 6.336l1.92.768c3.84 1.152 5.952 3.648 6.72 8.256 0 .192.576 13.632.96 21.888 0 .384-.192.576-.576.768-8.256 3.072-16.704 4.608-25.152 4.608zm-51.456-24c19.392 20.736 48.96 27.84 75.456 18.24-.384-8.448-.96-21.312-.96-21.312-.768-4.032-2.304-5.952-5.76-6.912l-1.92-.768c-2.304-.96-16.32-6.144-16.512-6.144-1.152-.384-2.304-1.344-2.88-2.496-.576-1.536-.576-3.072-.576-4.8 0-.192.192-.384.384-.576 1.536-1.152 3.072-2.304 4.416-3.456 2.304-2.112 4.032-4.608 4.8-7.488.192-.768.576-1.728 1.344-2.304.384-.384.96-.576 1.344-.96.768-.384 1.344-.768 1.92-1.728 1.344-3.072 2.304-6.144 2.496-9.6-.576-1.344-1.728-2.304-3.264-2.304h-.576c-.576 0-.96 0-1.344.192-.576 0-.96.192-1.344-.192-.384-.384-.384-.96-.384-1.152.192-1.536 0-7.488-.192-9.6v-.96c0-8.256-8.448-14.784-19.2-15.168h-.384c-10.752.384-19.2 7.104-19.2 15.168v.96c0 2.112-.192 8.064-.192 9.6 0 .576 0 .96-.384 1.152-.384.384-.768.192-1.344.192-.384 0-.768-.192-1.344 0h-.768c-1.536 0-2.688.96-3.264 2.304.384 3.264 1.152 6.528 2.496 9.6.384.768 1.152 1.152 1.92 1.536.384.192.96.576 1.344.96.768.576 1.344 1.536 1.344 2.496.96 2.88 2.496 5.376 4.8 7.488 1.344 1.152 2.88 2.304 4.224 3.264.192.192.384.384.384.576 0 1.728-.192 4.032-.384 4.608-.384 1.536-1.728 2.496-3.072 2.688l-13.44 4.992c-1.536.384-2.88.96-4.032 1.728-3.072 1.536-4.992 4.224-5.76 7.488.192.768 0 1.728-.192 2.688z" fill="#472b29"/><path d="M84.096 118.08c-2.112-.576-3.648-2.112-4.416-4.224-.576 2.112-2.304 3.648-4.416 4.224-.384 0-.576 0-.96.192l.576 4.608c.384.192.96.384 1.344.576 1.152.576 2.304.768 3.456.768 1.152 0 2.304-.384 3.264-.768.384-.192.768-.384 1.344-.576.384-1.536.576-3.072.576-4.608-.192-.192-.576-.192-.768-.192zM99.456 65.664c2.496.576 4.032 2.688 4.032 5.184-.192 4.224-3.072 22.464-3.072 22.464l-5.952-18.816c.192 0 4.992-8.832 4.992-8.832z" fill="#5e2e2e"/><path d="M77.184 55.872 74.88 52.8s25.152-2.88 24.96 11.136c.384 10.368-6.528 19.392-16.32 22.272l1.344-4.992-9.984 4.992 1.152-2.88-8.256 2.88 3.072-6.72-7.296 2.688c-1.728 4.224-2.88 8.64-3.84 13.056 0 0-5.76-19.392-2.112-20.928l-1.344-.768 1.728-3.456-2.304-1.152 2.304-3.264-.96-1.344 4.992-2.88-2.688-1.344c0 .192 8.256-6.912 17.856-4.224z" fill="#5e2e2e"/><path d="M73.152 109.056c0 .384-.192.576-.192.96 0 2.688 2.88 4.8 6.72 4.8s6.72-2.112 6.72-4.8c0-.384 0-.576-.192-.96z" fill="#6d1b18"/><path d="M83.136 114.048c-2.112-1.536-4.992-1.536-6.912 0 2.112 1.152 4.8 1.152 6.912 0z" fill="#ee3e54"/><path d="M75.072 109.056v.768c0 .768.96 1.344 2.112 1.344h4.992c1.152 0 2.112-.576 2.112-1.344v-.768z" fill="#fdfcef"/><path d="M79.68 115.2c-3.84 0-6.912-2.304-6.912-5.184 0-.384 0-.768.192-.96 0-.192.192-.384.384-.384H86.4c.192 0 .384.192.384.384 0 .384.192.576.192.96-.192 2.88-3.456 5.184-7.296 5.184zm-6.144-5.76v.576c0 2.496 2.88 4.416 6.144 4.416 3.456 0 6.336-1.92 6.336-4.416v-.576z" fill="#472b29"/><path d="M117.12 93.504c0-11.136 11.904-19.968 26.688-19.968 14.784 0 26.688 9.024 26.688 19.968s-11.904 19.968-26.688 19.968h-3.264c-3.84 3.456-8.64 5.76-13.632 6.528-.768.192-1.536-.384-1.728-1.344 0-.192 0-.576.192-.768 1.152-2.688 1.92-5.76 1.92-8.832-6.528-3.648-10.176-9.408-10.176-15.552" fill="#fdfcef"/><path d="M126.528 120.96c-.576 0-1.152-.192-1.536-.576-.576-.384-.768-.96-.96-1.536 0-.384 0-.96.192-1.344a18.781 18.781 0 0 0 1.728-7.872c-6.336-4.032-9.984-9.984-9.984-16.128v-.192c.192-11.52 12.48-20.736 27.648-20.736s27.648 9.408 27.648 20.928c0 11.52-12.48 20.928-27.648 20.928h-2.88c-3.84 3.456-8.64 5.76-14.016 6.528h-.192zm-8.448-27.072c.192 5.568 3.648 10.944 9.6 14.592.384.192.384.576.384.768 0 3.264-.768 6.336-1.92 9.216v.192c0 .192 0 .192.192.384.192 0 .192.192.384.192 4.992-.768 9.408-2.88 13.248-6.144.192-.192.384-.192.576-.192h3.264c14.208 0 25.728-8.64 25.728-19.008 0-10.56-11.52-19.008-25.728-19.008-14.208 0-25.728 8.64-25.728 19.008 0-.192 0-.192 0 0z" fill="#472b29"/><path d="M155.52 88.896c0-.768.576-1.344 1.152-1.536l-1.728-5.184-5.376 1.728c.192.576-.192.96-.576 1.152-.576.192-1.152 0-1.344-.576l-17.856 5.76.192 1.344c8.448-1.344 17.088-2.304 25.536-2.688z" fill="#048783"/><path d="M129.984 92.16h-.192c-.192 0-.192-.192-.192-.384l-.192-1.536c0-.192.192-.384.384-.576l17.856-5.952c.192 0 .576 0 .576.192.192.192.384.384.576.384.192 0 .384-.384.384-.576 0-.192 0-.576.384-.576l5.376-1.728h.384c.192 0 .192.192.192.192l1.728 5.184c0 .192 0 .576-.192.576-.576.192-.96.576-.96 1.152a.413.413 0 0 1-.384.384c-8.64.96-17.28 1.728-25.728 3.264.192 0 0 0 0 0zm.384-1.536v.576c8.064-1.344 16.512-2.304 24.576-2.688.192-.576.576-1.152.96-1.344l-1.152-4.608-4.608 1.536c0 .576-.384 1.152-.96 1.344-.576.192-1.344 0-1.728-.384zm25.152-1.728z" fill="#472b29"/><path d="M151.296 92.16a.413.413 0 0 1-.384-.384c-.192-.384-.192-.768-.384-.96l-.192-.768c0-.192 0-.576.384-.576.192 0 .576 0 .576.384l.192.768c.192.384.192.768.384.96-.192.192-.192.576-.576.576zM152.64 96.768a.413.413 0 0 1-.384-.384c-.192-.384-.192-.576-.384-.96s-.192-.576-.384-.96c0-.192 0-.576.384-.576.192 0 .576 0 .576.384s.192.576.384.96.192.576.384.96c0 .192-.192.576-.576.576.192 0 .192 0 0 0z" fill="#472b29"/><path d="m158.4 91.776-.768-5.376-5.568.768c0 .576-.576.96-1.152.768-.384 0-.576-.192-.768-.576l-22.272 3.072.768 5.376c1.152-.192 2.112.576 2.112 1.728.192 1.152-.576 2.112-1.728 2.112l.768 5.376 22.272-3.264c0-.576.384-1.152.768-1.152.576 0 1.152.192 1.152.768l5.568-.768-.768-5.376c-1.152.192-2.112-.576-2.112-1.728 0-.576.576-1.536 1.728-1.728z" fill="#669969"/><path d="M129.792 105.984a.413.413 0 0 1-.384-.384l-.768-5.568c0-.192.192-.576.384-.576.768-.192 1.344-.768 1.152-1.728 0-.384-.192-.768-.576-.96-.384-.192-.768-.384-1.152-.192h-.384c-.192 0-.192-.192-.192-.384l-.768-5.568v-.384c0-.192.192-.192.384-.192l22.272-3.072c.192 0 .384 0 .576.192 0 .192.192.192.384.384.192 0 .192 0 .384-.192.192 0 .192-.192.192-.384s.192-.384.384-.384l5.568-.768c.192 0 .576.192.576.384l.768 5.376v.192c0 .192-.192.384-.384.576-.384 0-.576.192-.96.576-.192.384-.384.768-.192 1.152.192.768.96 1.344 1.728 1.152h.384c.192 0 .192.192.192.384l.768 5.376c0 .192-.192.576-.384.576l-5.568.768h-.384c-.192 0-.192-.192-.192-.384 0-.384-.384-.576-.576-.384-.384 0-.576.384-.384.576v.384c0 .192-.192.192-.384.192l-22.464 3.264c.192-.192.192 0 0 0zm-.192-5.76.576 4.608 21.504-3.072c.192-.576.576-1.152 1.344-1.152.576-.192 1.344.192 1.536.768l4.8-.768-.576-4.608c-1.152 0-2.112-.96-2.304-2.112 0-.576 0-1.344.384-1.728.384-.384.768-.576 1.152-.768l-.576-4.608-4.8.768c-.192.192-.192.384-.576.576-.384.192-.768.384-1.152.192-.384 0-.768-.192-.96-.576l-21.504 3.072.576 4.608c.384 0 .96.192 1.344.384.576.384.768.96.96 1.536 0 1.536-.576 2.496-1.728 2.88z" fill="#472b29"/><path d="m148.608 90.048 1.536 10.176-17.088 2.496-1.344-10.368z" fill="#C0E5E4"/><path d="M151.296 90.624c-.192 0-.192-.192-.192-.192l-.192-.96c0-.192 0-.384.192-.384s.384 0 .384.192l.192.96a.413.413 0 0 1-.384.384c.192 0 0 0 0 0zM152.448 97.728c-.192 0-.192-.192-.192-.192l-.192-1.728c0-.192 0-.384.192-.384s.384 0 .384.192l.192 1.728-.384.384zm-.576-3.648c-.192 0-.192 0-.192-.192l-.384-1.728c0-.192 0-.384.192-.384s.384 0 .384.192l.192 1.728c.192.192 0 .384-.192.384zM152.832 100.416c-.192 0-.192-.192-.192-.192l-.192-.96c0-.192 0-.384.192-.384s.384 0 .384.192l.192.96c-.192.192-.192.384-.384.384zM147.072 90.432c-.192 0-.192 0-.192-.192s0-.192.192-.192h.576c.192 0 .192 0 .192.192s0 .192-.192.192h-.576zM146.496 90.432l-.192-.192v-.192h.384v.192s0 .192-.192.192c.192 0 0 0 0 0zM132.672 99.456c-.192 0-.192 0-.192-.192l-.96-6.912v-.192h.192l14.016-1.92c.192 0 .192 0 .192.192s0 .192-.192.192l-13.824 1.92.96 6.528c0 .192 0 .384-.192.384zM132.864 100.992c-.192 0-.192 0-.192-.192v-.384c0-.192 0-.192.192-.192s.192 0 .192.192v.384c.192 0 0 .192-.192.192zM133.248 102.912c-.192 0-.192 0-.192-.192l-.192-1.152c0-.192 0-.192.192-.192s.192 0 .192.192l.192.96 16.512-2.304-1.152-8.448c0-.192 0-.192.192-.192s.192 0 .192.192l1.344 8.64v.192h-.192l-17.088 2.304z" fill="#472b29"/></g></svg>